<?xml version="1.0" encoding="utf-8"?>
<!-- Uploaded to: SVG Repo, www.svgrepo.com, Generator: SVG Repo Mixer Tools -->
<svg width="800px" height="800px" viewBox="0 0 1024 1024" class="icon"  version="1.1" xmlns="http://www.w3.org/2000/svg"><path d="M837.973333 640L512 409.6 186.026667 640 38.4 793.6c0 56.32 47.786667 102.4 107.52 102.4 58.88 0 107.52-46.08 107.52-102.4h26.453333c0 56.32 47.786667 102.4 107.52 102.4 58.88 0 107.52-46.08 107.52-102.4h35.84c0 56.32 47.786667 102.4 107.52 102.4 58.88 0 107.52-46.08 107.52-102.4h26.453334c0 56.32 47.786667 102.4 107.52 102.4 58.88 0 107.52-46.08 107.52-102.4L837.973333 640z" fill="#F48FB1" /><path d="M878.08 913.066667c-58.026667 0-107.52-38.4-120.32-90.453334-13.653333 52.053333-62.293333 90.453333-120.32 90.453334-62.293333 0-114.346667-44.373333-122.88-102.4h-4.266667c-8.533333 58.026667-60.586667 102.4-122.88 102.4-58.026667 0-107.52-38.4-120.32-90.453334-13.653333 52.053333-62.293333 90.453333-120.32 90.453334-68.266667 0-124.586667-53.76-124.586666-119.466667 0-4.266667 1.706667-8.533333 5.12-11.946667l147.626666-153.6c0.853333-0.853333 1.706667-1.706667 2.56-1.706666l325.973334-230.4c5.973333-4.266667 13.653333-4.266667 19.626666 0l325.973334 230.4c0.853333 0.853333 1.706667 1.706667 2.56 1.706666l147.626666 153.6c3.413333 3.413333 5.12 7.68 5.12 11.946667-1.706667 65.706667-57.173333 119.466667-126.293333 119.466667zM744.106667 776.533333h26.453333c9.386667 0 17.066667 7.68 17.066667 17.066667 0 46.933333 40.106667 85.333333 90.453333 85.333333 47.786667 0 86.186667-34.986667 89.6-78.506666L826.88 652.8 512 430.08 197.12 652.8 55.466667 800.426667c3.413333 44.373333 42.666667 78.506667 89.6 78.506666 49.493333 0 90.453333-38.4 90.453333-85.333333 0-9.386667 7.68-17.066667 17.066667-17.066667h26.453333c9.386667 0 17.066667 7.68 17.066667 17.066667 0 46.933333 40.106667 85.333333 90.453333 85.333333s90.453333-38.4 90.453333-85.333333c0-9.386667 7.68-17.066667 17.066667-17.066667h35.84c9.386667 0 17.066667 7.68 17.066667 17.066667 0 46.933333 40.106667 85.333333 90.453333 85.333333s90.453333-38.4 90.453333-85.333333c-0.853333-9.386667 6.826667-17.066667 16.213334-17.066667z" fill="#EC407A" /><path d="M194.56 554.666667V401.066667c0-151.04 125.44-273.066667 279.893333-273.066667h78.506667c154.453333 0 279.893333 122.026667 279.893333 273.066667v153.6H194.56z" fill="#FCE4EC" /><path d="M834.56 571.733333h-640c-9.386667 0-17.066667-7.68-17.066667-17.066666V401.066667c0-159.573333 133.12-290.133333 296.96-290.133334h78.506667C716.8 110.933333 849.92 241.493333 849.92 401.066667v153.6c1.706667 9.386667-5.973333 17.066667-15.36 17.066666z m-622.933333-34.133333h605.013333V401.066667c0-140.8-117.76-256-262.826667-256h-78.506666c-145.066667 0-262.826667 115.2-262.826667 256v136.533333z" fill="#EC407A" /><path d="M536.746667 128h-51.2c109.226667 0 279.893333 122.026667 279.893333 273.066667v153.6h51.2V401.066667c0.853333-151.04-124.586667-273.066667-279.893333-273.066667z" fill="#F8BBD0" /><path d="M834.56 571.733333h-640c-9.386667 0-17.066667-7.68-17.066667-17.066666V401.066667c0-159.573333 133.12-290.133333 296.96-290.133334h78.506667C716.8 110.933333 849.92 241.493333 849.92 401.066667v153.6c1.706667 9.386667-5.973333 17.066667-15.36 17.066666z m-622.933333-34.133333h605.013333V401.066667c0-140.8-117.76-256-262.826667-256h-78.506666c-145.066667 0-262.826667 115.2-262.826667 256v136.533333z" fill="#EC407A" /><path d="M834.56 640c-209.066667-55.466667-430.08-55.466667-639.146667 0V554.666667c209.066667-55.466667 430.08-55.466667 639.146667 0v85.333333z" fill="#FFEE58" /><path d="M834.56 657.066667c-1.706667 0-2.56 0-4.266667-0.853334-206.506667-55.466667-424.106667-55.466667-630.613333 0-5.12 1.706667-10.24 0-14.506667-2.56-4.266667-3.413333-6.826667-8.533333-6.826666-13.653333V554.666667c0-7.68 5.12-14.506667 12.8-16.213334 211.626667-56.32 436.053333-56.32 648.533333 0 7.68 1.706667 12.8 8.533333 12.8 16.213334v85.333333c0 5.12-2.56 10.24-6.826667 13.653333-4.266667 2.56-7.68 3.413333-11.093333 3.413334z m-320-75.946667c101.546667 0 203.093333 11.946667 302.933333 36.693333v-50.346666c-197.973333-50.346667-407.04-50.346667-605.013333 0v50.346666c98.986667-24.746667 200.533333-36.693333 302.08-36.693333z" fill="#EC407A" /><path d="M653.653333 516.266667a64 25.6 90 1 0 51.2 0 64 25.6 90 1 0-51.2 0Z" fill="#FFFFFF" /><path d="M679.253333 597.333333c-29.013333 0-42.666667-41.813333-42.666666-81.066666s13.653333-81.066667 42.666666-81.066667 42.666667 41.813333 42.666667 81.066667-13.653333 81.066667-42.666667 81.066666z m0-125.44c-4.266667 6.826667-8.533333 22.186667-8.533333 44.373334 0 21.333333 4.266667 36.693333 8.533333 44.373333 4.266667-6.826667 8.533333-22.186667 8.533334-44.373333 0-21.333333-5.12-36.693333-8.533334-44.373334z" fill="#EC407A" /><path d="M679.435403 580.418657a25.6 64 60.061 1 0 110.919327-63.881946 25.6 64 60.061 1 0-110.919327 63.881946Z" fill="#FFFFFF" /><path d="M695.466667 604.16c-13.653333 0-25.6-4.266667-31.573334-15.36-4.266667-6.826667-8.533333-22.186667 8.533334-44.373333 9.386667-11.946667 23.893333-23.893333 40.106666-33.28 34.133333-19.626667 76.8-29.013333 91.306667-3.413334 14.506667 25.6-15.36 58.026667-48.64 77.653334-18.773333 11.093333-40.96 18.773333-59.733333 18.773333z m76.8-77.653333c-7.68 0-23.893333 3.413333-42.666667 14.506666-18.773333 11.093333-29.866667 22.186667-34.133333 29.013334 7.68 0 23.893333-3.413333 42.666666-14.506667s29.866667-22.186667 34.133334-29.013333z" fill="#EC407A" /><path d="M725.812646 631.409396a64 25.6 25.684 1 0 22.190461-46.141342 64 25.6 25.684 1 0-22.190461 46.141342Z" fill="#FFFFFF" /><path d="M773.973333 661.333333h-5.12c-15.36-0.853333-33.28-5.973333-50.346666-14.506666-34.986667-17.066667-67.413333-46.933333-54.613334-73.386667 3.413333-7.68 13.653333-19.626667 40.96-17.92 15.36 0.853333 33.28 5.973333 50.346667 14.506667 34.986667 17.066667 67.413333 46.933333 54.613333 73.386666-3.413333 6.826667-12.8 17.92-35.84 17.92z m-76.8-72.533333c4.266667 6.826667 16.213333 17.066667 35.84 26.453333 19.626667 9.386667 34.986667 11.946667 43.52 11.093334-4.266667-6.826667-16.213333-17.066667-35.84-26.453334-19.626667-9.386667-35.84-11.093333-43.52-11.093333z" fill="#EC407A" /><path d="MNaN NaNaNaN NaN NaN 1 0 NaN NaN NaN NaN NaN 1 0 NaN NaNZ" fill="#FFFFFF" /><path d="M684.373333 725.333333c-5.12 0-12.8-1.706667-20.48-8.533333-13.653333-12.8-23.04-39.253333-24.746666-70.826667-1.706667-39.253333 9.386667-81.92 38.4-83.626666 8.533333-0.853333 23.893333 2.56 35.84 28.16 5.973333 13.653333 10.24 31.573333 11.093333 51.2 1.706667 39.253333-9.386667 81.92-38.4 83.626666h-1.706667z m2.56-33.28z m-6.826666-91.306666c-3.413333 6.826667-7.68 23.04-5.973334 44.373333 0.853333 21.333333 6.826667 36.693333 11.093334 43.52 3.413333-6.826667 7.68-23.04 5.973333-44.373333-1.706667-22.186667-6.826667-37.546667-11.093333-43.52z" fill="#EC407A" /><path d="M566.76901 642.088216a25.6 64 60.954 1 0 111.901465-62.145492 25.6 64 60.954 1 0-111.901465 62.145492Z" fill="#FFFFFF" /><path d="M584.533333 666.453333c-14.506667 0-26.453333-4.266667-32.426666-16.213333-4.266667-6.826667-8.533333-22.186667 9.386666-44.373333 9.386667-11.946667 23.893333-23.04 40.96-32.426667 34.133333-18.773333 77.653333-28.16 91.306667-1.706667 4.266667 6.826667 8.533333 22.186667-9.386667 44.373334-9.386667 11.946667-23.893333 23.04-40.96 32.426666-18.773333 11.093333-40.96 17.92-58.88 17.92z m0-34.133333c7.68 0 23.893333-3.413333 42.666667-13.653333 18.773333-10.24 29.866667-22.186667 34.133333-29.013334-7.68 0-23.893333 3.413333-42.666666 13.653334-18.773333 11.093333-29.866667 23.04-34.133334 29.013333z m25.6-43.52z" fill="#EC407A" /><path d="M611.778791 564.493461a64 25.6 35.077 1 0 29.423452-41.90108 64 25.6 35.077 1 0-29.423452 41.90108Z" fill="#FFFFFF" /><path d="M664.746667 603.306667c-17.92 0-40.106667-8.533333-63.146667-24.746667-31.573333-22.186667-58.88-57.173333-41.813333-81.92 5.12-6.826667 17.066667-17.066667 43.52-11.093333 14.506667 3.413333 31.573333 11.093333 46.933333 22.186666 31.573333 22.186667 58.88 57.173333 41.813333 81.92-3.413333 4.266667-9.386667 10.24-20.48 11.946667-1.706667 0.853333-4.266667 1.706667-6.826666 1.706667z m-0.853334-29.866667z m-73.386666-55.466667c3.413333 6.826667 13.653333 19.626667 30.72 32.426667 17.92 12.8 33.28 17.066667 40.96 17.92-3.413333-6.826667-13.653333-19.626667-30.72-32.426667-17.92-11.946667-33.28-17.066667-40.96-17.92z" fill="#EC407A" /><path d="M681.813333 576.853333m-34.986666 0a34.986667 34.986667 0 1 0 69.973333 0 34.986667 34.986667 0 1 0-69.973333 0Z" fill="#FCE4EC" /><path d="M681.813333 629.76c-29.013333 0-52.053333-23.04-52.053333-52.053333s23.04-52.053333 52.053333-52.053334 52.053333 23.04 52.053334 52.053334-23.04 52.053333-52.053334 52.053333z m0-70.826667c-10.24 0-17.92 8.533333-17.92 17.92s8.533333 17.92 17.92 17.92 17.92-8.533333 17.92-17.92-7.68-17.92-17.92-17.92z" fill="#EC407A" /></svg>