<?xml version="1.0" encoding="utf-8"?>
<!-- Uploaded to: SVG Repo, www.svgrepo.com, Generator: SVG Repo Mixer Tools -->
<svg width="800px" height="800px" viewBox="0 0 1024 1024" class="icon"  version="1.1" xmlns="http://www.w3.org/2000/svg"><path d="M512 986.453333c-44.373333 0-81.066667-34.986667-83.626667-79.36l-36.693333-620.373333h241.493333l-36.693333 620.373333c-3.413333 45.226667-40.106667 79.36-84.48 79.36z" fill="#FFFFFF" /><path d="M512 1003.52c-53.76 0-97.28-41.813333-100.693333-94.72l-36.693334-620.373333c0-4.266667 1.706667-9.386667 4.266667-12.8s7.68-5.12 12.8-5.12h241.493333c5.12 0 9.386667 1.706667 12.8 5.12s5.12 7.68 4.266667 12.8l-36.693333 620.373333c-3.413333 53.76-47.786667 94.72-101.546667 94.72z m-102.4-699.733333l35.84 602.453333c1.706667 34.986667 31.573333 63.146667 66.56 63.146667s64.853333-27.306667 66.56-63.146667L614.4 303.786667H409.6z" fill="#EC407A" /><path d="M512 924.16m-79.36 0a79.36 79.36 0 1 0 158.72 0 79.36 79.36 0 1 0-158.72 0Z" fill="#FCE4EC" /><path d="M512 1020.586667c-52.906667 0-96.426667-43.52-96.426667-96.426667 0-52.906667 43.52-96.426667 96.426667-96.426667 52.906667 0 96.426667 43.52 96.426667 96.426667 0 52.906667-43.52 96.426667-96.426667 96.426667z m0-158.72c-34.133333 0-62.293333 28.16-62.293333 62.293333s28.16 62.293333 62.293333 62.293333 62.293333-28.16 62.293333-62.293333S546.133333 861.866667 512 861.866667z" fill="#EC407A" /><path d="M686.933333 328.533333l-349.866666-58.026666V97.28c0-42.666667 30.72-76.8 69.12-76.8h212.48c38.4 0 69.12 34.133333 69.12 76.8v231.253333z" fill="#FCE4EC" /><path d="M686.933333 345.6h-2.56l-349.866666-58.026667c-8.533333-1.706667-14.506667-8.533333-14.506667-17.066666V97.28c0-52.053333 38.4-93.866667 86.186667-93.866667h212.48c47.786667 0 86.186667 42.666667 86.186666 93.866667v231.253333c0 5.12-2.56 9.386667-5.973333 12.8-4.266667 3.413333-7.68 4.266667-11.946667 4.266667zM354.133333 256l315.733334 52.906667V97.28c0-33.28-23.04-59.733333-52.053334-59.733333H406.186667c-28.16 0-52.053333 27.306667-52.053334 59.733333V256z" fill="#EC407A" /><path d="M609.28 20.48h-50.346667c38.4 0 69.12 34.133333 69.12 76.8v222.72l50.346667 8.533333V97.28c0-41.813333-30.72-76.8-69.12-76.8z" fill="#F8BBD0" /><path d="M686.933333 345.6h-2.56l-349.866666-58.026667c-8.533333-1.706667-14.506667-8.533333-14.506667-17.066666V97.28c0-52.053333 38.4-93.866667 86.186667-93.866667h212.48c47.786667 0 86.186667 42.666667 86.186666 93.866667v231.253333c0 5.12-2.56 9.386667-5.973333 12.8-4.266667 3.413333-7.68 4.266667-11.946667 4.266667zM354.133333 256l315.733334 52.906667V97.28c0-33.28-23.04-59.733333-52.053334-59.733333H406.186667c-28.16 0-52.053333 27.306667-52.053334 59.733333V256z" fill="#EC407A" /><path d="M337.066667 270.506667l349.866666 58.026666v-75.093333l-349.866666-58.026667z" fill="#FFEE58" /><path d="M686.933333 345.6h-2.56l-349.866666-58.026667c-8.533333-1.706667-14.506667-8.533333-14.506667-17.066666v-75.093334c0-5.12 2.56-9.386667 5.973333-12.8 3.413333-3.413333 8.533333-4.266667 13.653334-3.413333l349.866666 58.026667c8.533333 1.706667 14.506667 8.533333 14.506667 17.066666v75.093334c0 5.12-2.56 9.386667-5.973333 12.8-3.413333 2.56-6.826667 3.413333-11.093334 3.413333zM354.133333 256l315.733334 52.906667v-40.106667l-315.733334-52.906667V256z" fill="#EC407A" /></svg>