<?xml version="1.0" encoding="utf-8"?>
<!-- Uploaded to: SVG Repo, www.svgrepo.com, Generator: SVG Repo Mixer Tools -->
<svg width="800px" height="800px" viewBox="0 0 1024 1024" class="icon"  version="1.1" xmlns="http://www.w3.org/2000/svg"><path d="M861.866667 563.2V74.24H431.786667V563.2h-8.533334L190.293333 664.746667c-57.173333 24.746667-94.72 81.92-94.72 144.213333 0 87.04 70.826667 157.013333 157.013334 157.013333h535.893333c40.96 0 75.093333-33.28 75.093333-75.093333V563.2h-1.706666z" fill="#FCE4EC" /><path d="M788.48 983.893333H252.586667c-96.426667 0-174.08-78.506667-174.08-174.08 0-69.12 40.96-132.266667 104.96-159.573333l231.253333-101.546667V74.24c0-9.386667 7.68-17.066667 17.066667-17.066667H861.866667c9.386667 0 17.066667 7.68 17.066666 17.066667v481.28c0.853333 2.56 1.706667 5.12 1.706667 7.68v328.533333c0 51.2-40.96 92.16-92.16 92.16zM426.666667 580.266667L197.12 680.96c-51.2 22.186667-84.48 72.533333-84.48 128.853333 0 77.653333 63.146667 139.946667 139.946667 139.946667h535.893333c31.573333 0 58.026667-25.6 58.026667-58.026667V570.88c-0.853333-2.56-1.706667-5.12-1.706667-7.68V91.306667H448.853333V563.2c0 9.386667-7.68 17.066667-17.066666 17.066667H426.666667z" fill="#EC407A" /><path d="M861.866667 563.2V74.24h-73.386667V563.2h1.706667v328.533333c0 40.96-33.28 75.093333-75.093334 75.093334h73.386667c40.96 0 75.093333-33.28 75.093333-75.093334V563.2h-1.706666z" fill="#F8BBD0" /><path d="M431.786667 515.413333H861.866667v85.333334H431.786667z" fill="#FFFFFF" /><path d="M861.866667 617.813333H431.786667c-9.386667 0-17.066667-7.68-17.066667-17.066666v-85.333334c0-9.386667 7.68-17.066667 17.066667-17.066666H861.866667c9.386667 0 17.066667 7.68 17.066666 17.066666v85.333334c0 9.386667-7.68 17.066667-17.066666 17.066666z m-413.013334-34.133333H844.8v-51.2H448.853333v51.2z" fill="#EC407A" /><path d="M431.786667 343.893333H861.866667v85.333334H431.786667z" fill="#FFFFFF" /><path d="M861.866667 446.293333H431.786667c-9.386667 0-17.066667-7.68-17.066667-17.066666v-85.333334c0-9.386667 7.68-17.066667 17.066667-17.066666H861.866667c9.386667 0 17.066667 7.68 17.066666 17.066666v85.333334c0 9.386667-7.68 17.066667-17.066666 17.066666z m-413.013334-34.133333H844.8v-51.2H448.853333v51.2z" fill="#EC407A" /><path d="M634.88 966.826667h154.453333c40.96 0 75.093333-33.28 75.093334-75.093334V702.293333c-129.706667 18.773333-228.693333 129.706667-229.546667 264.533334z" fill="#F48FB1" /><path d="M788.48 983.893333h-153.6c-4.266667 0-8.533333-1.706667-11.946667-5.12s-5.12-7.68-5.12-11.946666c0.853333-141.653333 103.253333-260.266667 244.053334-281.6 5.12-0.853333 10.24 0.853333 13.653333 4.266666 3.413333 3.413333 5.973333 7.68 5.973333 12.8v189.44c-0.853333 51.2-41.813333 92.16-93.013333 92.16z m-136.533333-34.133333h136.533333c31.573333 0 58.026667-25.6 58.026667-58.026667V722.773333c-107.52 24.746667-186.026667 116.053333-194.56 226.986667z" fill="#EC407A" /><path d="M279.04 839.68c0-70.826667-28.16-134.826667-73.386667-181.76l-16.213333 6.826667c-57.173333 24.746667-94.72 81.92-94.72 144.213333 0 84.48 67.413333 153.6 151.04 157.013333 21.333333-36.693333 33.28-80.213333 33.28-126.293333z" fill="#FFEE58" /><path d="M246.613333 983.04c-94.72-3.413333-168.106667-80.213333-168.106666-174.08 0-69.12 40.96-132.266667 104.96-159.573333l16.213333-6.826667c6.826667-2.56 14.506667-1.706667 18.773333 3.413333 50.346667 52.906667 77.653333 121.173333 77.653334 193.706667 0 46.933333-11.946667 93.866667-34.133334 134.826667-3.413333 5.973333-8.533333 8.533333-15.36 8.533333z m-45.226666-304.64l-5.12 2.56c-51.2 22.186667-84.48 72.533333-84.48 128.853333 0 71.68 53.76 131.413333 124.586666 139.093334 16.213333-33.28 25.6-70.826667 25.6-108.373334 0-60.586667-21.333333-116.906667-60.586666-162.133333z" fill="#EC407A" /><path d="M327.68 621.226667c46.08 60.586667 74.24 136.533333 74.24 219.306666 0 44.373333-8.533333 87.04-23.04 127.146667H469.333333c11.946667-40.106667 18.773333-82.773333 18.773334-127.146667 0-94.72-29.013333-181.76-79.36-254.293333l-81.066667 34.986667z" fill="#FFFFFF" /><path d="M469.333333 983.893333H378.88c-5.973333 0-11.093333-2.56-13.653333-7.68-3.413333-4.266667-4.266667-10.24-1.706667-15.36 14.506667-38.4 22.186667-79.36 22.186667-121.173333 0-75.946667-24.746667-148.48-70.826667-209.066667-3.413333-4.266667-4.266667-9.386667-2.56-14.506666 1.706667-5.12 5.12-9.386667 9.386667-11.093334l80.213333-34.986666c7.68-3.413333 16.213333-0.853333 20.48 5.973333 53.76 77.653333 82.773333 168.96 82.773333 263.68 0 44.373333-6.826667 88.746667-18.773333 131.413333-3.413333 7.68-9.386667 12.8-17.066667 12.8z m-66.56-34.133333h53.76c9.386667-35.84 14.506667-72.533333 14.506667-110.08 0-83.626667-23.893333-163.84-68.266667-232.96l-47.786666 21.333333c42.666667 62.293333 64.853333 135.68 64.853333 211.626667-0.853333 37.546667-6.826667 74.24-17.066667 110.08z" fill="#EC407A" /><path d="M928.426667 57.173333h-563.2v161.28h0.853333c0 2.56-0.853333 4.266667-0.853333 6.826667 0 25.6 23.04 46.933333 52.053333 46.933333s52.053333-21.333333 52.053333-46.933333c0-2.56 0-4.266667-0.853333-6.826667h46.08c0 2.56-0.853333 4.266667-0.853333 6.826667 0 25.6 23.04 46.933333 52.053333 46.933333s52.053333-21.333333 52.053333-46.933333c0-2.56 0-4.266667-0.853333-6.826667h60.586667c0 2.56-0.853333 4.266667-0.853334 6.826667 0 25.6 23.04 46.933333 52.053334 46.933333s52.053333-21.333333 52.053333-46.933333c0-2.56 0-4.266667-0.853333-6.826667h46.08c0 2.56-0.853333 4.266667-0.853334 6.826667 0 25.6 23.04 46.933333 52.053334 46.933333s52.053333-21.333333 52.053333-46.933333c0-2.56 0-4.266667-0.853333-6.826667h0.853333V57.173333z" fill="#FFFFFF" /><path d="M876.373333 289.28c-34.133333 0-62.293333-23.04-68.266666-53.76h-11.946667c-5.12 30.72-34.133333 53.76-68.266667 53.76s-62.293333-23.04-68.266666-53.76h-27.306667c-5.12 30.72-34.133333 53.76-68.266667 53.76s-62.293333-23.04-68.266666-53.76h-11.946667c-5.12 30.72-34.133333 53.76-68.266667 53.76-38.4 0-69.12-29.013333-69.12-64v-4.266667V57.173333c0-9.386667 7.68-17.066667 17.066667-17.066666h563.2c9.386667 0 17.066667 7.68 17.066667 17.066666v168.106667c1.706667 34.986667-29.013333 64-67.413334 64zM779.093333 201.386667h46.08c5.12 0 9.386667 2.56 12.8 5.973333s4.266667 8.533333 4.266667 13.653333c0 1.706667-0.853333 2.56-0.853333 4.266667 0 16.213333 15.36 29.866667 34.986666 29.866667 18.773333 0 34.986667-13.653333 34.986667-29.866667V221.866667 74.24h-529.066667V213.333333c0.853333 2.56 0.853333 4.266667 0.853334 6.826667 0 1.706667-0.853333 2.56-0.853334 4.266667 0 16.213333 15.36 29.866667 34.986667 29.866666s34.986667-13.653333 34.986667-29.866666v-3.413334c-0.853333-5.12 0.853333-10.24 3.413333-14.506666 3.413333-3.413333 7.68-5.973333 12.8-5.973334h46.08c5.12 0 9.386667 2.56 12.8 5.973334s4.266667 8.533333 4.266667 13.653333c0 1.706667-0.853333 2.56-0.853334 4.266667 0 16.213333 15.36 29.866667 34.986667 29.866666s34.986667-13.653333 34.986667-29.866666v-3.413334c-0.853333-5.12 0.853333-10.24 3.413333-14.506666 3.413333-3.413333 7.68-5.973333 12.8-5.973334h60.586667c5.12 0 9.386667 2.56 12.8 5.973334s4.266667 8.533333 4.266666 13.653333c0 1.706667-0.853333 2.56-0.853333 4.266667 0 16.213333 15.36 29.866667 34.986667 29.866666 18.773333 0 34.986667-13.653333 34.986666-29.866666v-3.413334c-0.853333-5.12 0.853333-10.24 3.413334-14.506666 2.56-2.56 7.68-5.12 11.946666-5.12z" fill="#EC407A" /></svg>