<?xml version="1.0" encoding="utf-8"?>
<!-- Uploaded to: SVG Repo, www.svgrepo.com, Generator: SVG Repo Mixer Tools -->
<svg fill="#000000" width="800px" height="800px" viewBox="0 0 32 32" version="1.1" xmlns="http://www.w3.org/2000/svg">
<title>airplayvideo</title>
<path d="M15.829 17.897c-0.187 0.008-0.352 0.097-0.461 0.232l-0.001 0.001-8.879 10.198c-0.095 0.103-0.154 0.242-0.154 0.394 0 0.005 0 0.009 0 0.014v-0.001c-0 0.006-0 0.014-0 0.022 0 0.324 0.263 0.587 0.587 0.587 0.008 0 0.016-0 0.024-0l-0.001 0h17.859c0.005 0 0.011 0 0.017 0 0.151 0 0.288-0.058 0.391-0.152l-0 0c0.122-0.115 0.199-0.278 0.199-0.459 0-0.155-0.056-0.296-0.148-0.406l0.001 0.001-8.931-10.248c-0.13-0.114-0.301-0.184-0.489-0.184-0.004 0-0.008 0-0.011 0h0.001zM5.27 2.656c-0.145-0.016-0.314-0.026-0.485-0.026-0.748 0-1.455 0.178-2.079 0.495l0.026-0.012c-0.543 0.292-0.977 0.725-1.261 1.251l-0.008 0.016c-0.305 0.607-0.483 1.322-0.483 2.080 0 0.179 0.010 0.355 0.029 0.529l-0.002-0.021v11.416c-0.016 0.145-0.026 0.314-0.026 0.485 0 0.748 0.178 1.454 0.494 2.079l-0.012-0.026c0.293 0.543 0.727 0.977 1.253 1.261l0.016 0.008c0.583 0.308 1.275 0.488 2.009 0.488 0.186 0 0.37-0.012 0.551-0.034l-0.021 0.002h3.399l1.422-1.674h-5.328c-0.088 0.012-0.19 0.019-0.293 0.019-0.355 0-0.691-0.083-0.989-0.23l0.013 0.006c-0.263-0.136-0.473-0.345-0.606-0.6l-0.004-0.008c-0.134-0.308-0.212-0.666-0.212-1.043 0-0.080 0.003-0.159 0.010-0.236l-0.001 0.010v-12.38c-0.012-0.088-0.019-0.19-0.019-0.294 0-0.354 0.082-0.689 0.228-0.987l-0.006 0.013c0.137-0.263 0.347-0.472 0.602-0.605l0.008-0.004c0.31-0.135 0.671-0.214 1.051-0.214 0.077 0 0.153 0.003 0.229 0.010l-0.010-0.001h22.324c0.087-0.012 0.188-0.019 0.29-0.019 0.356 0 0.693 0.082 0.993 0.229l-0.013-0.006c0.262 0.137 0.47 0.346 0.604 0.601l0.004 0.008c0.134 0.307 0.212 0.666 0.212 1.042 0 0.080-0.003 0.158-0.010 0.236l0.001-0.010v12.432c0.012 0.088 0.019 0.19 0.019 0.294 0 0.354-0.082 0.69-0.228 0.988l0.006-0.013c-0.136 0.262-0.345 0.471-0.599 0.604l-0.008 0.004c-0.309 0.135-0.67 0.213-1.048 0.213-0.078 0-0.155-0.003-0.231-0.010l0.010 0.001h-5.328l1.421 1.676 3.502-0.050c0.153 0.018 0.33 0.028 0.509 0.028 0.757 0 1.472-0.179 2.105-0.497l-0.027 0.012c0.543-0.292 0.977-0.726 1.261-1.253l0.008-0.016c0.307-0.584 0.488-1.276 0.488-2.010 0-0.186-0.012-0.369-0.034-0.548l0.002 0.021v-11.419c0.018-0.152 0.028-0.329 0.028-0.508 0-0.757-0.179-1.472-0.496-2.105l0.012 0.027c-0.292-0.543-0.726-0.976-1.253-1.26l-0.016-0.008c-0.606-0.306-1.321-0.485-2.078-0.485-0.179 0-0.356 0.010-0.53 0.030l0.021-0.002h-21.412z"></path>
</svg>